<svg width="80" height="80" viewBox="0 0 80 80" fill="none" xmlns="http://www.w3.org/2000/svg">
<path d="M40 51.2686C39.0308 51.2686 38.246 52.0543 38.246 53.0235C38.246 53.9926 39.031 54.7788 40 54.7788C40.9695 54.7788 41.7551 53.9926 41.7551 53.0235C41.7551 52.0543 40.9695 51.2686 40 51.2686Z" fill="black"/>
<path d="M78.3673 3.42896H1.63265C0.730939 3.42896 0 4.15989 0 5.06161V58.5238C0 59.4254 0.730939 60.1565 1.63265 60.1565H30.1569L27.3011 67.0838H21.9329C21.0313 67.0838 20.3002 67.8149 20.3002 68.7165V74.9382C20.3002 75.8399 21.0313 76.5708 21.9329 76.5708H58.0673C58.9688 76.5708 59.6999 75.8399 59.6999 74.9382V68.7165C59.6999 67.8149 58.9688 67.0838 58.0673 67.0838H52.6993L49.8433 60.1565H78.3673C79.2689 60.1565 80 59.4254 80 58.5238V5.06161C80 4.15973 79.2689 3.42896 78.3673 3.42896ZM76.7347 6.69426V46.025H3.26531V6.69426H76.7347ZM56.4346 73.3055H23.5656V70.3491H56.4346V73.3055ZM49.1672 67.0838H30.833L33.6888 60.1565H46.3112L49.1672 67.0838ZM3.26531 56.8912V49.2903H76.7347V56.8912H3.26531Z" fill="black"/>
<path d="M52.7683 26.3001C52.7683 25.3986 52.0372 24.6675 51.1355 24.6676L49.3944 24.6678C49.296 24.1008 49.15 23.5501 48.9559 23.0221L50.4614 22.1528C51.2421 21.7017 51.5097 20.7032 51.0586 19.9225C50.6075 19.1417 49.6093 18.8738 48.8284 19.3251L47.3185 20.1972C46.954 19.7615 46.5513 19.3589 46.1156 18.9941L46.9877 17.4844C47.4389 16.7037 47.1714 15.705 46.3907 15.2541C45.61 14.8028 44.6114 15.0704 44.1603 15.8511L43.2909 17.3564C42.7629 17.1623 42.2122 17.0162 41.6452 16.9176V15.1773C41.6452 14.2756 40.9143 13.5447 40.0126 13.5447C40.0085 13.5447 40.0042 13.5453 40.0002 13.5453C39.9961 13.5453 39.9918 13.5447 39.9878 13.5447C39.0862 13.5447 38.3551 14.2756 38.3551 15.1773V16.9174C37.7881 17.016 37.2374 17.162 36.7094 17.3563L35.84 15.851C35.3889 15.0702 34.3904 14.8026 33.6096 15.2539C32.8289 15.7048 32.5615 16.7035 33.0126 17.4843L33.8847 18.994C33.449 19.3587 33.0464 19.7613 32.6818 20.1971L31.1719 19.3249C30.391 18.8737 29.3928 19.1416 28.9417 19.9223C28.4906 20.703 28.7582 21.7016 29.5389 22.1527L31.0444 23.0219C30.8503 23.5499 30.7043 24.1006 30.6059 24.6676L28.8648 24.6675C27.9631 24.6673 27.232 25.3984 27.232 26.2999C27.232 27.2017 27.9631 27.9326 28.8648 27.9326L30.6059 27.9324C30.7042 28.4993 30.8503 29.05 31.0444 29.578L29.5389 30.4474C28.7582 30.8985 28.4906 31.8968 28.9417 32.6777C29.3928 33.4583 30.391 33.7262 31.1719 33.275L32.6818 32.4028C33.0464 32.8387 33.449 33.2413 33.8847 33.6059L33.0126 35.1158C32.5615 35.8965 32.8289 36.895 33.6096 37.346C34.3904 37.7972 35.3889 37.5297 35.84 36.7491L36.7094 35.2436C37.2374 35.4377 37.7881 35.584 38.3551 35.6825V37.4226C38.3551 38.3243 39.0862 39.0552 39.9878 39.0552C39.9918 39.0552 39.9961 39.0546 40.0002 39.0546C40.0042 39.0546 40.0085 39.0552 40.0126 39.0552C40.9143 39.0552 41.6452 38.3243 41.6452 37.4226V35.6825C42.2122 35.584 42.7629 35.4379 43.2909 35.2436L44.1603 36.7491C44.6114 37.5297 45.61 37.7972 46.3907 37.346C47.1714 36.895 47.4389 35.8965 46.9877 35.1158L46.1156 33.6059C46.5513 33.2413 46.954 32.8387 47.3185 32.4028L48.8284 33.275C49.6093 33.7262 50.6077 33.4583 51.0586 32.6777C51.5097 31.8968 51.2421 30.8985 50.4614 30.4474L48.9559 29.578C49.15 29.05 49.296 28.4993 49.3944 27.9324L51.1355 27.9326C52.0372 27.9328 52.7683 27.2018 52.7683 26.3001ZM40.0124 32.5604C40.0083 32.5604 40.0041 32.56 40 32.56C39.9959 32.56 39.9917 32.5604 39.9876 32.5604C36.536 32.5604 33.728 29.7522 33.728 26.3001C33.728 22.8482 36.536 20.0399 39.9876 20.0399C39.9917 20.0399 39.9959 20.0402 40 20.0402C40.0041 20.0402 40.0083 20.0399 40.0124 20.0399C43.464 20.0399 46.272 22.8482 46.272 26.3001C46.272 29.752 43.464 32.5604 40.0124 32.5604Z" fill="black"/>
</svg>
