<svg width="80" height="80" viewBox="0 0 80 80" fill="none" xmlns="http://www.w3.org/2000/svg">
<g clip-path="url(#clip0_1_86)">
<path d="M38.22 21.4834C34.1336 21.4834 30.8087 24.8081 30.8087 28.8945C30.8087 32.981 34.1334 36.3059 38.22 36.3059C42.3066 36.3059 45.6311 32.9811 45.6311 28.8945C45.631 24.8078 42.3064 21.4834 38.22 21.4834ZM38.22 33.5746C35.6395 33.5746 33.5398 31.475 33.5398 28.8944C33.5398 26.3137 35.6393 24.2144 38.22 24.2144C40.8005 24.2144 42.9 26.3139 42.9 28.8944C42.8999 31.475 40.8003 33.5746 38.22 33.5746Z" fill="black"/>
<path d="M70.6368 19.2256C67.9585 19.2256 65.7794 21.4047 65.7794 24.083C65.7794 26.7613 67.9585 28.9403 70.6368 28.9403C73.3151 28.9403 75.4942 26.7613 75.4942 24.083C75.494 21.4047 73.3149 19.2256 70.6368 19.2256ZM70.6368 26.2092C69.4644 26.2092 68.5105 25.2553 68.5105 24.083C68.5105 22.9106 69.4643 21.9567 70.6368 21.9567C71.8093 21.9567 72.7631 22.9106 72.7631 24.083C72.7629 25.2555 71.8092 26.2092 70.6368 26.2092Z" fill="black"/>
<path d="M74.4996 6.15605L54.6417 6.15527C51.6087 6.15527 49.1412 8.62357 49.1412 11.6575V17.9266H40.953C40.9511 17.9266 40.9495 17.9265 40.9477 17.9265H11.1316C11.1282 17.9265 11.1248 17.9266 11.121 17.9266H5.83598C2.61799 17.9266 0 20.5448 0 23.7626V58.8276C0 62.0455 2.61799 64.6635 5.83598 64.6635H26.7451L24.9014 72.1523C24.8999 72.1588 24.8993 72.1653 24.8979 72.1717C24.8904 72.2045 24.8844 72.2378 24.8793 72.2716C24.8768 72.2878 24.8738 72.3039 24.8718 72.3203C24.868 72.3527 24.8663 72.3856 24.8649 72.4191C24.8641 72.4358 24.8625 72.4528 24.8624 72.4697C24.8624 72.473 24.8619 72.4761 24.8619 72.4792C24.8619 72.52 24.8644 72.5603 24.8679 72.6002C24.8683 72.6053 24.868 72.6105 24.8686 72.6156C24.8735 72.6656 24.8816 72.715 24.8918 72.7634C24.893 72.7697 24.895 72.7756 24.8964 72.782C24.906 72.8238 24.9171 72.8648 24.9302 72.905C24.9339 72.9164 24.9386 72.9278 24.9427 72.9392C24.955 72.9736 24.9683 73.0075 24.9833 73.0406C24.9896 73.0542 24.9963 73.0678 25.003 73.0813C25.018 73.1114 25.0338 73.1411 25.0507 73.17C25.0591 73.1842 25.0674 73.1983 25.0763 73.2122C25.0941 73.2402 25.1133 73.2672 25.1332 73.2938C25.1399 73.3028 25.1455 73.3127 25.1527 73.3217C25.1558 73.3255 25.1594 73.3291 25.1625 73.3328C25.1866 73.3628 25.2121 73.3913 25.2385 73.4191C25.2455 73.4266 25.2519 73.4345 25.2593 73.4419C25.2932 73.4759 25.3286 73.508 25.366 73.5381C25.3758 73.5461 25.3861 73.5531 25.3961 73.5609C25.4246 73.5828 25.4535 73.6039 25.4835 73.6236C25.4965 73.632 25.5099 73.6397 25.5232 73.6477C25.5518 73.665 25.5808 73.6816 25.611 73.6966C25.6249 73.7036 25.6388 73.7102 25.6529 73.7167C25.6836 73.7311 25.7147 73.7441 25.7468 73.7561C25.7608 73.7614 25.7747 73.7667 25.7888 73.7716C25.8219 73.7828 25.8557 73.7924 25.8897 73.8011C25.9036 73.8047 25.9171 73.8088 25.9308 73.8117C25.9669 73.8197 26.0035 73.8258 26.0407 73.8306C26.053 73.8322 26.0652 73.8349 26.0779 73.8363C26.1271 73.8416 26.1769 73.8449 26.2274 73.8449H42.6899H53.4979C54.2523 73.8449 54.8636 73.2335 54.8636 72.4792C54.8636 71.7252 54.2523 71.1137 53.4979 71.1137H44.4321L46.0197 64.664L69.9026 64.6632C72.7818 64.6632 75.1245 62.3216 75.1245 59.4432V47.6306C77.8644 47.319 80.0002 44.9879 80.0002 42.1662V11.657C80.0006 8.62357 77.5328 6.15605 74.4996 6.15605ZM56.2414 11.657C56.2414 10.1298 57.4839 8.88733 59.0112 8.88733H74.4996C76.027 8.88717 77.2695 10.1297 77.2695 11.657V13.2669H56.2414V11.657ZM56.2412 15.9977H77.2694V37.653H76.6164L69.7446 30.0911C69.4857 29.8064 69.1187 29.6439 68.734 29.6439C68.3493 29.6439 67.9822 29.8062 67.7233 30.0911L65.7724 32.2377L60.9277 26.9084C60.6689 26.6239 60.3019 26.4614 59.9172 26.4614C59.5327 26.4614 59.1656 26.6237 58.9069 26.9086L56.2414 29.8411L56.2412 15.9977ZM72.926 37.653H70.6954L67.618 34.268L68.734 33.04L72.926 37.653ZM56.2415 33.7925L56.2958 33.8417L59.9175 29.8572L67.0047 37.653H56.2415V33.7925ZM51.8723 11.6577C51.8723 10.2653 52.9049 9.11264 54.2434 8.91858C53.7781 9.72577 53.5101 10.6603 53.5101 11.6572V42.1659C53.5101 43.162 53.7776 44.0963 54.2426 44.9031C52.9045 44.7085 51.8721 43.557 51.8721 42.1659V11.6577H51.8723ZM8.64085 48.6615L19.6262 37.3708L34.2306 53.4341H8.64085V48.6615ZM31.6445 46.5278L34.9256 42.9173L44.4824 53.4338H37.9212V53.4339L31.6445 46.5278ZM6.54302 61.9323H5.83598C4.12394 61.9324 2.73112 60.5396 2.73112 58.8276V23.7626C2.73112 22.0506 4.12394 20.6577 5.83598 20.6577H6.54302C6.13942 21.3984 5.90973 22.2471 5.90973 23.1481V59.4426C5.90973 60.3435 6.13927 61.1918 6.54302 61.9323ZM41.6197 71.1133H27.9699L29.5576 64.6635H43.2074L41.6197 71.1133ZM72.3938 59.4429C72.3938 60.8152 71.2765 61.9318 69.903 61.9318H11.1316C9.7582 61.9318 8.64085 60.8154 8.64085 59.4429V56.1652H72.3938V59.4429ZM72.3938 53.4341H48.1727L35.9364 39.9687C35.6775 39.684 35.3106 39.5215 34.9257 39.5215C34.541 39.5215 34.174 39.6838 33.9153 39.9687L29.799 44.4979L20.6703 34.4596C20.4169 34.181 20.0597 34.0192 19.6831 34.013C19.3028 34.0117 18.9439 34.1561 18.6814 34.4261L8.641 44.7454V23.1482C8.641 21.7766 9.75554 20.6607 11.1265 20.6579H49.1413V42.1659C49.1413 45.1987 51.6088 47.6662 54.6418 47.6662L72.394 47.6667V53.4341H72.3938ZM77.2695 42.1657C77.2695 43.6931 76.027 44.9356 74.4996 44.9356L59.0006 44.9351C57.4781 44.9293 56.2412 43.6895 56.2412 42.1657V40.3841H77.2694V42.1657H77.2695Z" fill="black"/>
</g>
<defs>
<clipPath id="clip0_1_86">
<rect width="80" height="80" fill="white"/>
</clipPath>
</defs>
</svg>
