<svg width="80" height="80" viewBox="0 0 80 80" fill="none" xmlns="http://www.w3.org/2000/svg">
<path d="M42.7725 68.25H37.565C37.2335 68.25 36.9155 68.3817 36.6811 68.6161C36.4467 68.8505 36.315 69.1685 36.315 69.5C36.315 69.8315 36.4467 70.1495 36.6811 70.3839C36.9155 70.6183 37.2335 70.75 37.565 70.75H42.7725C43.104 70.75 43.422 70.6183 43.6564 70.3839C43.8908 70.1495 44.0225 69.8315 44.0225 69.5C44.0225 69.1685 43.8908 68.8505 43.6564 68.6161C43.422 68.3817 43.104 68.25 42.7725 68.25Z" fill="black"/>
<path d="M66.35 18.7625C66.3505 18.6175 66.3251 18.4736 66.275 18.3375C66.2558 18.3055 66.2391 18.2721 66.225 18.2375C66.2 18.1875 66.1875 18.15 66.1625 18.1L58.15 5.5125C57.9307 5.16376 57.6264 4.87643 57.2656 4.67747C56.9049 4.47851 56.4995 4.37443 56.0875 4.375H23.9125C23.5005 4.37443 23.0952 4.47851 22.7344 4.67747C22.3737 4.87643 22.0693 5.16376 21.85 5.5125L13.8375 18.1C13.8125 18.15 13.8 18.1875 13.775 18.2375C13.7609 18.2721 13.7442 18.3055 13.725 18.3375C13.6749 18.4736 13.6495 18.6175 13.65 18.7625L13.6375 18.775V24.5375C13.6439 25.8683 14.0755 27.1623 14.8693 28.2304C15.6631 29.2986 16.7776 30.0851 18.05 30.475V68.4C18.0537 70.3172 18.8177 72.1547 20.1746 73.5092C21.5315 74.8638 23.3703 75.6247 25.2875 75.625H54.7125C56.6298 75.6247 58.4686 74.8638 59.8254 73.5092C61.1823 72.1547 61.9464 70.3172 61.95 68.4V30.475C63.2224 30.0851 64.3369 29.2986 65.1307 28.2304C65.9246 27.1623 66.3562 25.8683 66.3625 24.5375V18.775L66.35 18.7625ZM56.0375 6.85L62.825 17.525H55.9L51.4375 6.85H56.0375ZM48.725 6.85L53.1875 17.525H46.1375L44.975 6.8625L48.725 6.85ZM53.8125 20.025V24.5375C53.8125 25.5321 53.4174 26.4859 52.7142 27.1892C52.0109 27.8924 51.0571 28.2875 50.0625 28.2875H50.025C49.0305 28.2875 48.0766 27.8924 47.3734 27.1892C46.6701 26.4859 46.275 25.5321 46.275 24.5375V20.025H53.8125ZM37.5375 6.8625H42.4625L43.625 17.525H36.375L37.5375 6.8625ZM36.225 20.025H43.775V24.5375C43.775 25.5321 43.3799 26.4859 42.6767 27.1892C41.9734 27.8924 41.0196 28.2875 40.025 28.2875H39.975C38.9804 28.2875 38.0266 27.8924 37.3234 27.1892C36.6201 26.4859 36.225 25.5321 36.225 24.5375V20.025ZM35.025 6.8625L33.8625 17.525H26.8125L31.275 6.875L35.025 6.8625ZM33.725 20.025V24.5375C33.725 25.5321 33.3299 26.4859 32.6267 27.1892C31.9234 27.8924 30.9696 28.2875 29.975 28.2875H29.9375C28.943 28.2875 27.9891 27.8924 27.2859 27.1892C26.5826 26.4859 26.1875 25.5321 26.1875 24.5375V20.025H33.725ZM23.9125 6.875H28.5625L24.1 17.525H17.1625L23.9125 6.875ZM19.9375 28.2875H19.8875C18.893 28.2875 17.9391 27.8924 17.2359 27.1892C16.5326 26.4859 16.1375 25.5321 16.1375 24.5375V20.025H23.6875V24.5375C23.6875 25.5321 23.2924 26.4859 22.5892 27.1892C21.8859 27.8924 20.9321 28.2875 19.9375 28.2875ZM59.45 68.4C59.446 69.6541 58.9452 70.8555 58.0573 71.7411C57.1693 72.6267 55.9666 73.1243 54.7125 73.125H25.2875C24.0334 73.1243 22.8307 72.6267 21.9427 71.7411C21.0548 70.8555 20.554 69.6541 20.55 68.4V65.8875H59.45V68.4ZM59.45 63.3875H20.55V30.725C21.4138 30.6425 22.2507 30.3796 23.0065 29.9533C23.7623 29.5269 24.4202 28.9467 24.9375 28.25C25.5134 29.0356 26.2661 29.6746 27.1347 30.1155C28.0033 30.5563 28.9634 30.7865 29.9375 30.7875H29.975C30.9491 30.7865 31.9092 30.5563 32.7778 30.1155C33.6464 29.6746 34.3991 29.0356 34.975 28.25C35.5509 29.0356 36.3036 29.6746 37.1722 30.1155C38.0408 30.5563 39.0009 30.7865 39.975 30.7875H40.025C40.9991 30.7865 41.9592 30.5563 42.8278 30.1155C43.6964 29.6746 44.4491 29.0356 45.025 28.25C45.6009 29.0356 46.3536 29.6746 47.2222 30.1155C48.0908 30.5563 49.0509 30.7865 50.025 30.7875H50.0625C51.0366 30.7865 51.9967 30.5563 52.8653 30.1155C53.7339 29.6746 54.4866 29.0356 55.0625 28.25C55.5799 28.9467 56.2377 29.5269 56.9935 29.9533C57.7493 30.3796 58.5862 30.6425 59.45 30.725V63.3875ZM63.8625 24.5375C63.8625 25.5321 63.4674 26.4859 62.7642 27.1892C62.0609 27.8924 61.1071 28.2875 60.1125 28.2875H60.0625C59.068 28.2875 58.1141 27.8924 57.4109 27.1892C56.7076 26.4859 56.3125 25.5321 56.3125 24.5375V20.025H63.8625V24.5375Z" fill="black"/>
<path d="M52.8125 55.075L46.125 48.3875C47.2502 46.154 47.543 43.5926 46.9509 41.1627C46.3587 38.7328 44.9203 36.5933 42.8936 35.1279C40.8669 33.6624 38.3844 32.9669 35.8913 33.166C33.3982 33.365 31.0576 34.4457 29.2891 36.2142C27.5207 37.9827 26.44 40.3233 26.2409 42.8164C26.0418 45.3095 26.7374 47.7919 28.2028 49.8186C29.6683 51.8453 31.8077 53.2837 34.2376 53.8759C36.6675 54.4681 39.2289 54.1753 41.4625 53.05L48.15 59.7375C48.7723 60.3362 49.6046 60.667 50.4681 60.6586C51.3315 60.6503 52.1573 60.3036 52.7679 59.693C53.3785 59.0824 53.7252 58.2566 53.7336 57.3931C53.7419 56.5296 53.4112 55.6973 52.8125 55.075ZM36.7375 51.675C34.882 51.6771 33.0832 51.0357 31.6477 49.86C30.2122 48.6844 29.2289 47.0473 28.8653 45.2278C28.5016 43.4083 28.7802 41.519 29.6536 39.8819C30.527 38.2448 31.9411 36.9613 33.6548 36.25C35.3686 35.5388 37.276 35.4439 39.0519 35.9815C40.8277 36.5191 42.3622 37.6559 43.3938 39.1982C44.4254 40.7405 44.8901 42.5929 44.7089 44.4395C44.5277 46.2861 43.7117 48.0127 42.4 49.325C41.658 50.0712 40.7756 50.663 39.8037 51.0663C38.8319 51.4696 37.7897 51.6765 36.7375 51.675ZM51.05 57.9625C50.9014 58.1114 50.7004 58.1961 50.49 58.1984C50.2797 58.2008 50.0769 58.1206 49.925 57.975L43.575 51.625C43.7866 51.4592 43.987 51.2797 44.175 51.0875C44.3599 50.9008 44.5352 50.7047 44.7 50.5L51.05 56.8375C51.1242 56.9112 51.1831 56.9988 51.2233 57.0954C51.2635 57.1919 51.2842 57.2955 51.2842 57.4C51.2842 57.5046 51.2635 57.6082 51.2233 57.7047C51.1831 57.8012 51.1242 57.8889 51.05 57.9625Z" fill="black"/>
</svg>
