<svg width="80" height="80" viewBox="0 0 80 80" fill="none" xmlns="http://www.w3.org/2000/svg">
<path d="M46.6667 40.0001C44.5413 40.0001 42.784 40.8374 41.6533 42.1147C40.5227 43.3947 40 45.0427 40 46.6667C40 48.7467 38.4853 50.4481 37.84 50.9521C36.848 51.7361 37.4 53.3307 38.6667 53.3334H45.3333C47.4293 53.3334 49.3787 52.7201 50.8587 51.5681C52.3387 50.4161 53.3333 48.6614 53.3333 46.6667C53.3333 44.8454 52.8187 43.1467 51.6533 41.9067C50.48 40.6667 48.728 40.0001 46.6667 40.0001ZM46.6667 42.6667C48.1867 42.6667 49.104 43.0934 49.7067 43.7334C50.312 44.3734 50.6667 45.3387 50.6667 46.6667C50.6667 47.8187 50.16 48.7361 49.2267 49.4667C48.2853 50.1921 46.9013 50.6667 45.3333 50.6667H41.5387C42.1707 49.6001 42.664 48.2668 42.664 46.6667C42.664 45.6268 43.0107 44.6081 43.6453 43.8854C44.2853 43.1654 45.2027 42.6667 46.6667 42.6667ZM78.0907 13.3601C77.7547 13.4001 77.4693 13.4881 77.152 13.6001C76.5173 13.8134 75.784 14.1601 74.9173 14.5974C73.184 15.4774 70.9787 16.7654 68.6507 18.2374C63.984 21.1787 58.8907 24.7894 56.272 27.4054C53.7787 29.8961 51.9627 32.1627 51.1093 34.4374C50.256 36.7094 50.6133 39.1761 52.384 40.9441C54.1573 42.7174 56.624 43.0774 58.896 42.2241C61.1707 41.3707 63.4373 39.5521 65.928 37.0614C68.5413 34.4401 72.1547 29.3468 75.1013 24.6881C76.5733 22.3521 77.8613 20.1441 78.7413 18.4134C79.1813 17.5494 79.5227 16.8134 79.7413 16.1787C79.848 15.8587 79.9333 15.5761 79.9707 15.2401C80.0053 14.9041 80.096 14.3681 79.5253 13.8001C78.9547 13.2267 78.424 13.3201 78.0853 13.3547L78.0907 13.3601ZM76.3653 17.2107C75.5467 18.8187 74.2853 20.9867 72.8453 23.2641C69.9653 27.8321 66.2853 32.9387 64.0453 35.1787C61.6773 37.5441 59.5707 39.1254 57.9573 39.7307C56.3467 40.3307 55.4133 40.2027 54.2693 39.0641C53.1307 37.9174 53.0027 36.9841 53.6027 35.3734C54.2107 33.7628 55.7893 31.6561 58.1627 29.2934C60.4027 27.0534 65.5067 23.3734 70.072 20.4934C72.3547 19.0481 74.52 17.7867 76.1307 16.9681C76.488 16.8721 76.4773 17.0267 76.3707 17.2081L76.3653 17.2107ZM6.66667 21.3334H52C52.7387 21.3334 53.3333 21.9281 53.3333 22.6667C53.3333 23.4054 52.7387 24.0001 52 24.0001H6.66667C5.928 24.0001 5.33333 23.4054 5.33333 22.6667C5.33333 21.9281 5.928 21.3334 6.66667 21.3334ZM18.6667 17.3334C18.6667 18.0694 18.0693 18.6667 17.3333 18.6667C16.5973 18.6667 16 18.0694 16 17.3334C16 16.5974 16.5973 16.0001 17.3333 16.0001C18.0693 16.0001 18.6667 16.5974 18.6667 17.3334ZM13.3333 17.3334C13.3333 18.0694 12.736 18.6667 12 18.6667C11.264 18.6667 10.6667 18.0694 10.6667 17.3334C10.6667 16.5974 11.264 16.0001 12 16.0001C12.736 16.0001 13.3333 16.5974 13.3333 17.3334ZM8 17.3334C8 18.0694 7.40267 18.6667 6.66667 18.6667C5.93067 18.6667 5.33333 18.0694 5.33333 17.3334C5.33333 16.5974 5.93067 16.0001 6.66667 16.0001C7.40267 16.0001 8 16.5974 8 17.3334ZM4 10.6667C1.808 10.6667 0 12.4747 0 14.6667V65.3334C0 67.5254 1.808 69.3334 4 69.3334H70.6667C72.8587 69.3334 74.6667 67.5254 74.6667 65.3334V33.3334C74.6667 31.5521 72 31.5601 72 33.3334V65.3334C72 66.0961 71.4293 66.6667 70.6667 66.6667H4C3.23733 66.6667 2.66667 66.0961 2.66667 65.3334V14.6667C2.66667 13.9041 3.23733 13.3334 4 13.3334H70.6667C72.44 13.3334 72.4187 10.6667 70.6667 10.6667H4Z" fill="black"/>
</svg>
