<svg width="80" height="80" viewBox="0 0 80 80" fill="none" xmlns="http://www.w3.org/2000/svg">
<g clip-path="url(#clip0_1_135)">
<path d="M64.0501 0C55.2553 0 48.1003 7.155 48.1003 15.9498C48.1003 18.5966 48.7698 21.2102 50.0419 23.548L48.9684 26.2316C48.5394 25.0259 47.6764 24.0052 46.542 23.3811C46.5787 23.1323 46.5973 22.8819 46.5973 22.6303C46.5973 19.9223 44.5408 17.6858 41.9073 17.4003C40.9905 15.7534 39.2464 14.6972 37.3278 14.6972C37.0445 14.6972 36.7578 14.7233 36.47 14.775C35.403 13.8689 34.0481 13.3611 32.6514 13.3611C32.4327 13.3611 32.2127 13.3745 31.988 13.4017C30.8345 12.5098 29.4319 12.025 27.975 12.025C26.5181 12.025 25.1153 12.5098 23.962 13.4017C23.7373 13.3745 23.5175 13.3611 23.2986 13.3611C21.913 13.3611 20.5942 13.8383 19.5337 14.7145C17.785 14.8575 16.2275 15.8759 15.3791 17.4003C12.7456 17.6859 10.6889 19.9223 10.6889 22.6303C10.6889 22.8819 10.7073 23.1323 10.7442 23.3811C9.09297 24.2895 8.01672 26.0381 8.01672 27.9748C8.01672 28.918 8.27594 29.8389 8.75922 30.647C8.27594 31.4552 8.01672 32.3761 8.01672 33.3192C8.01672 35.2427 9.07812 36.9905 10.732 37.9055C10.808 38.412 10.9827 38.8913 11.238 39.3202C10.1084 40.0102 9.35281 41.2545 9.35281 42.6722V45.3444C9.35281 47.5086 11.1134 49.2692 13.2777 49.2692H14.2405L14.3964 50.2442C14.6484 51.8192 15.462 53.2487 16.6873 54.27L17.3694 54.8384V59.4039C17.3694 60.0311 16.9667 60.5766 16.3673 60.7608L4.65687 64.3639C1.87156 65.2214 0 67.7553 0 70.6695V76.0752C0 78.2394 1.76062 80 3.92484 80H52.025C54.1892 80 55.9498 78.2394 55.9498 76.0752V70.6695C55.9498 67.7552 54.0783 65.2213 51.2928 64.3642L39.5823 60.7611C38.983 60.5767 38.5803 60.0314 38.5803 59.4042V54.8386L39.2623 54.2703C40.4877 53.2492 41.3012 51.8194 41.5533 50.2445L41.7092 49.2695H42.672C44.8362 49.2695 46.5969 47.5089 46.5969 45.3447V42.6725C46.5969 41.6388 46.1944 40.6973 45.5386 39.9958C46.0728 39.4245 46.4347 38.6994 46.5537 37.9059C48.2077 36.9909 49.2691 35.2431 49.2691 33.3195C49.2691 33.1594 49.2589 33 49.2441 32.8416L56.4517 29.9586C58.7895 31.2305 61.4033 31.9 64.0498 31.9C72.8447 31.9 79.9997 24.745 79.9997 15.9502C79.9997 7.15531 72.845 0 64.0501 0ZM13.2777 46.7641C12.4948 46.7641 11.858 46.1272 11.858 45.3444V42.6722C11.858 41.9975 12.3316 41.4323 12.9636 41.2887L13.8395 46.7641H13.2777ZM9.35281 77.4948H3.92484C3.14203 77.4948 2.50516 76.858 2.50516 76.0752V70.6695C2.50516 69.9606 2.68594 69.2894 3.00703 68.7014L8.36125 73.1631C8.99141 73.6883 9.35281 74.46 9.35281 75.2802V77.4948ZM52.9428 68.7014C53.2642 69.2892 53.4447 69.9605 53.4447 70.6695V76.0752C53.4447 76.858 52.8078 77.4948 52.025 77.4948H46.597V75.2805C46.597 74.4602 46.9584 73.6884 47.5886 73.1634L52.9428 68.7014ZM44.8412 65.0003L50.5561 66.7586C50.7461 66.8172 50.9283 66.8903 51.1037 66.9728L45.985 71.2388C44.7819 72.2412 44.0919 73.7142 44.0919 75.2803V77.4947H11.858V75.2803C11.858 73.7142 11.168 72.2411 9.965 71.2388L4.84594 66.9728C5.02141 66.8902 5.20359 66.817 5.39359 66.7586L12.1877 64.6681C12.2069 64.702 12.2273 64.7356 12.2503 64.7683C15.9859 70.1228 22.1089 73.3194 28.6292 73.3194C35.0545 73.3194 41.0917 70.2139 44.8412 65.0003ZM38.8458 63.1556L42.2956 64.2172C38.9937 68.3672 33.9637 70.8142 28.6294 70.8142C23.1573 70.8142 18.0064 68.2381 14.7119 63.8916L17.1042 63.1555C18.7614 62.6456 19.8748 61.1381 19.8748 59.4042V56.9264L22.0498 58.7391C22.9934 59.5253 24.1897 59.9584 25.4178 59.9584H30.5322C31.7605 59.9584 32.9566 59.5253 33.9002 58.7391L36.0752 56.9263V59.4041C36.0752 61.138 37.1886 62.6456 38.8458 63.1556ZM39.4923 47.27C39.1998 47.5984 36.1572 50.7725 27.975 50.7725C27.2833 50.7725 26.7223 51.3333 26.7223 52.0252C26.7223 52.717 27.2831 53.2778 27.975 53.2778C33.2264 53.2778 36.6627 52.0736 38.7567 50.9109C38.5041 51.4608 38.1308 51.9523 37.6587 52.3458L32.2962 56.8145C31.802 57.2264 31.1755 57.4531 30.532 57.4531H25.4177C24.7744 57.4531 24.1477 57.2262 23.6534 56.8145L18.2909 52.3458C17.5311 51.7125 17.0262 50.8256 16.87 49.8488L15.4948 41.2528H16.0739C17.3445 41.2528 18.4184 40.3431 18.6273 39.0897L19.3895 34.5163C20.34 34.3764 21.2278 33.9795 21.9622 33.3739C22.8912 34.14 24.0658 34.5723 25.3025 34.5723C26.5392 34.5723 27.7137 34.1402 28.6428 33.3739C29.5719 34.14 30.7464 34.5723 31.9831 34.5723C33.2198 34.5723 34.3944 34.1402 35.3234 33.3739C36.0578 33.9795 36.9456 34.3766 37.8961 34.5163L38.6583 39.0898C38.825 40.0902 39.5433 40.8697 40.472 41.1447L39.4923 47.27ZM44.0919 45.3445C44.0919 46.1273 43.455 46.7642 42.6722 46.7642H42.1102L42.9861 41.2889C43.6181 41.4323 44.0917 41.9975 44.0917 42.6723L44.0919 45.3445ZM46.0458 31.4856C46.5089 31.9998 46.7641 32.6512 46.7641 33.3194C46.7641 34.4803 46.0183 35.5202 44.9083 35.9067C44.3656 36.0958 44.0212 36.6297 44.0728 37.2019C44.0772 37.2498 44.0831 37.2972 44.0895 37.3445L44.0914 37.3584C44.0775 37.9822 43.6469 38.527 43.0344 38.6898C42.9767 38.7052 42.9208 38.7244 42.8669 38.7473H41.2119C41.1708 38.7473 41.1362 38.718 41.1295 38.6775L40.197 33.0833C40.0958 32.4755 39.5695 32.0366 38.9625 32.0366C38.9311 32.0366 38.8997 32.0378 38.868 32.04C38.802 32.045 38.737 32.053 38.6722 32.0619C38.6616 32.0634 38.6508 32.065 38.6402 32.0664C37.725 32.0588 36.8767 31.5975 36.3672 30.8292C36.135 30.4792 35.7433 30.2689 35.3233 30.2689C34.9033 30.2689 34.5114 30.4792 34.2794 30.8292C33.7656 31.6041 32.9072 32.0664 31.983 32.0664C31.0587 32.0664 30.2005 31.6038 29.6866 30.8292C29.4544 30.4792 29.0627 30.2689 28.6427 30.2689C28.2227 30.2689 27.8308 30.4792 27.5987 30.8292C27.085 31.6041 26.2266 32.0664 25.3023 32.0664C24.3781 32.0664 23.5198 31.6038 23.0059 30.8292C22.7737 30.4792 22.382 30.2689 21.962 30.2689C21.542 30.2689 21.1502 30.4792 20.9181 30.8292C20.4087 31.5975 19.5605 32.0586 18.6452 32.0664C18.6345 32.065 18.6237 32.0634 18.6131 32.0619C18.5483 32.053 18.4833 32.0448 18.4173 32.04C17.7698 31.9908 17.1947 32.4441 17.0883 33.0831L16.1558 38.6772C16.1489 38.7178 16.1144 38.747 16.0734 38.747H14.4191C14.3652 38.7242 14.3092 38.705 14.2516 38.6895C13.6391 38.5267 13.2083 37.9819 13.1945 37.3581L13.1964 37.3442C13.2028 37.297 13.2087 37.2495 13.2131 37.2016C13.2647 36.6294 12.9203 36.0953 12.3777 35.9064C11.2677 35.52 10.5219 34.4802 10.5219 33.3192C10.5219 32.6508 10.7769 31.9997 11.2402 31.4855C11.6694 31.0089 11.6694 30.2852 11.2402 29.8088C10.7769 29.2944 10.5219 28.6431 10.5219 27.9747C10.5219 26.7425 11.3608 25.6548 12.5622 25.3298C12.9077 25.2362 13.1966 24.9997 13.3562 24.6794C13.5159 24.3591 13.5308 23.9859 13.3975 23.6538C13.2625 23.3183 13.1942 22.9741 13.1942 22.6303C13.1942 21.1236 14.4095 19.8956 15.9114 19.8748L15.9133 19.875C15.9794 19.8842 16.0456 19.8922 16.1131 19.8962C16.6706 19.9298 17.1864 19.5875 17.3709 19.058C17.753 17.9616 18.7723 17.2205 19.9161 17.2027C19.9455 17.205 19.975 17.2064 20.005 17.2069C20.3402 17.2114 20.6645 17.0837 20.9042 16.8486C21.55 16.2152 22.4005 15.8663 23.2987 15.8663C23.5333 15.8663 23.7795 15.8959 24.0517 15.9573C24.4566 16.0484 24.8811 15.9328 25.1841 15.6484C25.952 14.9275 26.9433 14.5303 27.9752 14.5303C29.007 14.5303 29.9984 14.9275 30.7662 15.6484C31.0691 15.9328 31.4936 16.0484 31.8986 15.9573C32.1706 15.8961 32.417 15.8663 32.6516 15.8663C33.6156 15.8663 34.512 16.2694 35.1761 17.0016C35.5106 17.3705 36.0322 17.5061 36.5039 17.3469C36.7927 17.2495 37.0622 17.2022 37.328 17.2022C38.4889 17.2022 39.5287 17.948 39.9153 19.058C40.0997 19.5872 40.6131 19.9294 41.1731 19.8962C41.2408 19.8922 41.307 19.8842 41.373 19.875L41.3748 19.8748C42.8766 19.8956 44.092 21.1236 44.092 22.6303C44.092 22.9741 44.0237 23.3183 43.8889 23.6539C43.7555 23.9859 43.7705 24.3592 43.9302 24.6795C44.0898 24.9997 44.3787 25.2366 44.7241 25.33C45.9253 25.6548 46.7642 26.7425 46.7642 27.9747C46.7642 28.6431 46.5092 29.2942 46.0459 29.8084C45.6166 30.2853 45.6166 31.0091 46.0458 31.4856ZM64.0501 29.3945C61.6467 29.3945 59.2739 28.7377 57.1884 27.4952C56.8534 27.2956 56.4442 27.2631 56.082 27.4081L50.2655 29.7348L52.5922 23.9183C52.7372 23.5561 52.7048 23.147 52.5051 22.8119C51.2625 20.7264 50.6056 18.3536 50.6056 15.9502C50.6056 8.53672 56.6369 2.50547 64.0503 2.50547C71.4637 2.50547 77.495 8.53672 77.495 15.9502C77.495 23.3636 71.4636 29.3945 64.0501 29.3945Z" fill="black"/>
<path d="M73.6206 10.3879C73.1314 9.89867 72.3383 9.89867 71.8492 10.3879L70.319 11.918L68.455 11.5452L68.0822 9.68117L69.6123 8.15102C70.1015 7.6618 70.1015 6.86883 69.6123 6.37961C69.1231 5.89039 68.33 5.89039 67.8409 6.37961L65.8367 8.38383C65.5406 8.67992 65.412 9.10445 65.4942 9.51523L66.0308 12.1982L60.9664 17.2626L58.2834 16.726C57.8725 16.6438 57.4481 16.7724 57.152 17.0685L55.1478 19.0727C54.6586 19.562 54.6586 20.3549 55.1478 20.8441C55.637 21.3334 56.4301 21.3334 56.9192 20.8441L58.4494 19.314L60.3134 19.6868L60.6862 21.5509L59.1561 23.081C58.6669 23.5702 58.6669 24.3632 59.1561 24.8524C59.4006 25.097 59.7212 25.2193 60.0417 25.2193C60.3622 25.2193 60.6828 25.0971 60.9273 24.8524L62.9315 22.8482C63.2276 22.5521 63.3562 22.1276 63.274 21.7168L62.7375 19.0338L67.8019 13.9695L70.4848 14.506C70.5667 14.5224 70.6489 14.5304 70.7304 14.5304C71.0594 14.5304 71.379 14.4009 71.6161 14.1635L73.6203 12.1593C74.1097 11.6701 74.1097 10.8771 73.6206 10.3879Z" fill="black"/>
</g>
<defs>
<clipPath id="clip0_1_135">
<rect width="80" height="80" fill="white"/>
</clipPath>
</defs>
</svg>
