<svg width="32" height="32" viewBox="0 0 32 32" fill="none" xmlns="http://www.w3.org/2000/svg">
<path d="M25.88 17.3332C25.5867 17.3332 25.28 17.2398 24.9867 17.1732C24.3931 17.0405 23.8095 16.8667 23.24 16.6532C22.6214 16.4281 21.9415 16.4398 21.3311 16.686C20.7206 16.9321 20.2228 17.3954 19.9333 17.9865L19.64 18.5998C18.3451 17.8654 17.1488 16.9694 16.08 15.9332C15.0438 14.8643 14.1477 13.6681 13.4133 12.3732L14.0267 12.0932C14.6178 11.8037 15.081 11.3059 15.3272 10.6954C15.5733 10.085 15.585 9.40505 15.36 8.7865C15.1482 8.21188 14.9745 7.62394 14.84 7.0265C14.7733 6.73317 14.72 6.4265 14.68 6.13317C14.5181 5.194 14.0262 4.34349 13.2928 3.73482C12.5595 3.12615 11.6329 2.79932 10.68 2.81317H6.66665C6.10298 2.81243 5.54552 2.93083 5.03081 3.16062C4.5161 3.3904 4.05577 3.72637 3.67999 4.1465C3.29641 4.57804 3.01081 5.0875 2.84279 5.63988C2.67477 6.19227 2.62833 6.77447 2.70665 7.3465C3.43143 12.896 5.96693 18.0514 9.91999 22.0132C13.8818 25.9662 19.0371 28.5017 24.5867 29.2265C24.7597 29.2397 24.9336 29.2397 25.1067 29.2265C26.0899 29.2279 27.0392 28.8672 27.7733 28.2132C28.1935 27.8374 28.5294 27.3771 28.7592 26.8623C28.989 26.3476 29.1074 25.7902 29.1067 25.2265V21.2265C29.0995 20.3052 28.7745 19.4147 28.1866 18.7053C27.5987 17.9959 26.7839 17.5113 25.88 17.3332ZM26.5333 25.3332C26.5329 25.5192 26.4935 25.7031 26.4177 25.8731C26.3419 26.043 26.2314 26.1952 26.0933 26.3198C25.9472 26.453 25.7733 26.552 25.5842 26.6096C25.3951 26.6673 25.1955 26.6821 25 26.6532C20.0243 26.0033 15.4003 23.7358 11.84 20.1998C8.27661 16.6365 5.98936 11.9963 5.33332 6.99984C5.30435 6.80428 5.31923 6.60473 5.37688 6.41564C5.43454 6.22655 5.53351 6.05264 5.66665 5.9065C5.79281 5.76671 5.94716 5.65522 6.11952 5.57938C6.29188 5.50354 6.47835 5.46507 6.66665 5.4665H10.6667C10.9749 5.45897 11.2762 5.55848 11.5193 5.7481C11.7624 5.93772 11.9323 6.20573 12 6.5065C12 6.8665 12.12 7.23984 12.2 7.59984C12.3541 8.29832 12.5591 8.9846 12.8133 9.65317L10.9467 10.5332C10.6258 10.6805 10.3765 10.949 10.2533 11.2798C10.12 11.6045 10.12 11.9686 10.2533 12.2932C12.1723 16.4035 15.4763 19.7076 19.5867 21.6265C19.9113 21.7599 20.2754 21.7599 20.6 21.6265C20.9308 21.5034 21.1994 21.254 21.3467 20.9332L22.1867 19.0665C22.8745 19.3173 23.5783 19.5222 24.2933 19.6798C24.64 19.7598 25.0133 19.8265 25.3733 19.8798C25.6741 19.9476 25.9421 20.1175 26.1317 20.3606C26.3213 20.6037 26.4209 20.905 26.4133 21.2132L26.5333 25.3332ZM18.6667 2.6665C18.36 2.6665 18.04 2.6665 17.7333 2.6665C17.3797 2.69656 17.0525 2.86586 16.8237 3.13717C16.5949 3.40847 16.4833 3.75955 16.5133 4.11317C16.5434 4.46679 16.7127 4.79399 16.984 5.02279C17.2553 5.25158 17.6064 5.36323 17.96 5.33317H18.6667C20.7884 5.33317 22.8232 6.17603 24.3235 7.67632C25.8238 9.17661 26.6667 11.2114 26.6667 13.3332C26.6667 13.5732 26.6667 13.7998 26.6667 14.0398C26.6371 14.3916 26.7482 14.7407 26.9757 15.0106C27.2031 15.2806 27.5283 15.4493 27.88 15.4798H27.9867C28.3204 15.4812 28.6426 15.3573 28.8895 15.1327C29.1363 14.908 29.2899 14.5989 29.32 14.2665C29.32 13.9598 29.32 13.6398 29.32 13.3332C29.32 10.5065 28.198 7.79541 26.2005 5.79541C24.203 3.7954 21.4933 2.67004 18.6667 2.6665ZM21.3333 13.3332C21.3333 13.6868 21.4738 14.0259 21.7238 14.276C21.9739 14.526 22.313 14.6665 22.6667 14.6665C23.0203 14.6665 23.3594 14.526 23.6095 14.276C23.8595 14.0259 24 13.6868 24 13.3332C24 11.9187 23.4381 10.5621 22.4379 9.56193C21.4377 8.56174 20.0811 7.99984 18.6667 7.99984C18.313 7.99984 17.9739 8.14031 17.7238 8.39036C17.4738 8.64041 17.3333 8.97955 17.3333 9.33317C17.3333 9.68679 17.4738 10.0259 17.7238 10.276C17.9739 10.526 18.313 10.6665 18.6667 10.6665C19.3739 10.6665 20.0522 10.9475 20.5523 11.4476C21.0524 11.9476 21.3333 12.6259 21.3333 13.3332Z" fill="white"/>
</svg>
