<svg width="80" height="80" viewBox="0 0 80 80" fill="none" xmlns="http://www.w3.org/2000/svg">
<path d="M28.6536 67.6774L21.6667 60.6904L14.6797 67.6774C16.6273 69.1361 19.0461 70.0001 21.6667 70.0001C24.2872 70.0001 26.706 69.1361 28.6536 67.6774ZM31.0106 65.3204C32.4693 63.3727 33.3333 60.954 33.3333 58.3334C33.3333 55.7129 32.4693 53.2941 31.0106 51.3465L24.0237 58.3334L31.0106 65.3204ZM12.3227 51.3465C10.864 53.2941 9.99999 55.7129 9.99999 58.3334C9.99999 60.954 10.864 63.3727 12.3227 65.3204L19.3096 58.3334L12.3227 51.3465ZM14.6797 48.9894L21.6667 55.9764L28.6536 48.9894C26.706 47.5308 24.2872 46.6667 21.6667 46.6667C19.0461 46.6667 16.6273 47.5308 14.6797 48.9894ZM21.6667 36.6667C13.3824 36.6667 6.66666 29.951 6.66666 21.6667C6.66666 13.3825 13.3824 6.66675 21.6667 6.66675C29.9509 6.66675 36.6667 13.3825 36.6667 21.6667C36.6667 29.951 29.9509 36.6667 21.6667 36.6667ZM21.6667 33.3334C28.11 33.3334 33.3333 28.1101 33.3333 21.6667C33.3333 15.2234 28.11 10.0001 21.6667 10.0001C15.2233 10.0001 9.99999 15.2234 9.99999 21.6667C9.99999 28.1101 15.2233 33.3334 21.6667 33.3334ZM25.3652 17.2923C25.9402 16.5735 26.989 16.457 27.7078 17.032C28.4266 17.607 28.5431 18.6558 27.9681 19.3746L21.3014 27.7079C20.6809 28.4836 19.5239 28.5477 18.8215 27.8453L15.4881 24.5119C14.8373 23.8611 14.8373 22.8058 15.4881 22.1549C16.139 21.504 17.1943 21.504 17.8452 22.1549L19.8618 24.1715L25.3652 17.2923ZM45 20.0001C44.0795 20.0001 43.3333 19.2539 43.3333 18.3334C43.3333 17.4129 44.0795 16.6667 45 16.6667H71.6667C72.5871 16.6667 73.3333 17.4129 73.3333 18.3334C73.3333 19.2539 72.5871 20.0001 71.6667 20.0001H45ZM45 26.6667C44.0795 26.6667 43.3333 25.9206 43.3333 25.0001C43.3333 24.0796 44.0795 23.3334 45 23.3334H65C65.9205 23.3334 66.6667 24.0796 66.6667 25.0001C66.6667 25.9206 65.9205 26.6667 65 26.6667H45ZM21.6667 73.3334C13.3824 73.3334 6.66666 66.6177 6.66666 58.3334C6.66666 50.0491 13.3824 43.3334 21.6667 43.3334C29.9509 43.3334 36.6667 50.0491 36.6667 58.3334C36.6667 66.6177 29.9509 73.3334 21.6667 73.3334ZM45 56.6667C44.0795 56.6667 43.3333 55.9206 43.3333 55.0001C43.3333 54.0796 44.0795 53.3334 45 53.3334H71.6667C72.5871 53.3334 73.3333 54.0796 73.3333 55.0001C73.3333 55.9206 72.5871 56.6667 71.6667 56.6667H45ZM45 63.3334C44.0795 63.3334 43.3333 62.5872 43.3333 61.6667C43.3333 60.7463 44.0795 60.0001 45 60.0001H65C65.9205 60.0001 66.6667 60.7463 66.6667 61.6667C66.6667 62.5872 65.9205 63.3334 65 63.3334H45Z" fill="black"/>
</svg>
